<?xml version="1.0" encoding="UTF-8"?>
<svg version="1.1" xmlns="http://www.w3.org/2000/svg" width="512" height="512">
<path d="M0 0 C1.21053547 -0.00384115 2.42107094 -0.00768229 3.6682893 -0.01163983 C5.01342724 -0.0108596 6.35856511 -0.00998081 7.70370293 -0.00901413 C9.13133476 -0.01159789 10.55896588 -0.01461108 11.98659599 -0.01801753 C15.9146022 -0.02608965 19.84259014 -0.02787722 23.77060366 -0.028615 C28.00526133 -0.03046521 32.2399095 -0.03801245 36.47456169 -0.04475021 C45.73709625 -0.05833615 54.99962649 -0.06435882 64.26216936 -0.06876087 C70.04604528 -0.07152318 75.82991953 -0.07576054 81.61379433 -0.08026505 C97.62801636 -0.09245866 113.64223705 -0.1027574 129.65646362 -0.10614014 C130.68156862 -0.1063597 131.70667362 -0.10657927 132.76284241 -0.10680549 C134.30418235 -0.10713291 134.30418235 -0.10713291 135.87666047 -0.10746694 C137.95889036 -0.1079104 140.04112025 -0.10835697 142.12335014 -0.10880661 C143.15620836 -0.10902804 144.18906657 -0.10924947 145.25322352 -0.10947761 C161.98483744 -0.11342462 178.71640777 -0.13087528 195.44800486 -0.15416613 C212.62663003 -0.17788616 229.80523334 -0.19034231 246.98387516 -0.19150805 C256.62877072 -0.19242451 266.27360953 -0.1981694 275.91848946 -0.21632767 C284.13250409 -0.23173752 292.34644443 -0.23684393 300.56047077 -0.22858956 C304.7500447 -0.22468603 308.93946904 -0.22559807 313.12902451 -0.23964691 C316.96848625 -0.25240378 320.80768629 -0.25117276 324.64714776 -0.2390562 C326.68553521 -0.23618044 328.72392726 -0.24802149 330.76227868 -0.26047826 C345.10733518 -0.18338392 357.66293058 4.22960506 368.27667046 14.17049026 C377.11905392 23.5948565 383.25082965 36.08374843 383.23676872 49.17447281 C383.23883072 50.66146683 383.23883072 50.66146683 383.24093437 52.17850113 C383.2373391 53.25456116 383.23374382 54.33062119 383.2300396 55.43928909 C383.23018562 56.58118698 383.23033165 57.72308487 383.2304821 58.89958572 C383.22978589 62.6708962 383.22200705 66.44215718 383.21417046 70.21345901 C383.21230524 72.82948149 383.21088183 75.44550431 383.20988274 78.06152725 C383.20677776 84.24145555 383.19857562 90.4213661 383.18853325 96.60128659 C383.17734621 103.63875106 383.17185513 110.67621639 383.16683781 117.71368754 C383.15639231 132.18627676 383.13880902 146.65885201 383.11651421 161.13142776 C383.73357231 160.92284134 384.35063042 160.71425491 384.98638725 160.49934769 C385.79632133 160.2271138 386.60625542 159.95487991 387.44073296 159.67439651 C388.24341606 159.40393509 389.04609917 159.13347366 389.873106 158.85481644 C402.73546832 154.70733798 416.23683291 157.22997602 428.24151421 162.75642776 C441.47607306 169.79755908 449.51689951 180.52123076 454.38995171 194.52595901 C458.40683255 208.93058011 456.26390982 223.90525653 449.10223198 236.9384346 C443.58223617 245.81447385 436.0869599 252.5142195 427.84448195 258.79768801 C407.601155 274.24881558 384.72827087 291.87683486 380.51376152 318.42978287 C377.85108131 338.85887855 378.98311328 359.72437443 380.16738892 380.22550488 C380.75656776 390.59713726 380.99964614 400.97355585 381.24542046 411.35799026 C381.50427282 421.97362155 381.79027225 432.58204025 382.30071831 443.18892288 C382.37469458 444.8037537 382.44852503 446.41859121 382.52219963 448.03343582 C382.65801472 450.99758156 382.8155995 453.95938994 382.98670769 456.92168045 C383.70586308 471.17911871 380.04431005 484.2314319 370.86651421 495.44392776 C362.65134382 504.10850572 350.37521824 511.68740594 338.18803215 512.27186966 C337.05124519 512.27869766 335.91445824 512.28552567 334.74322319 512.29256058 C333.45185951 512.30216812 332.16049583 512.31177567 330.82999992 512.32167435 C329.4242044 512.32652085 328.01840682 512.33080004 326.61260796 512.33455276 C325.16819571 512.34030714 323.72378348 512.34606483 322.27937126 512.35182571 C319.25576231 512.36231466 316.2321798 512.36817196 313.20855522 512.37166214 C309.33238482 512.37716083 305.45656321 512.40122652 301.58050251 512.42963409 C298.5993986 512.44824018 295.61837937 512.45346484 292.63722229 512.45499802 C291.20785477 512.45802666 289.77848882 512.46606236 288.34917831 512.4791832 C286.35299294 512.49620898 284.35666325 512.49252367 282.36041069 512.48787308 C281.22441933 512.49151871 280.08842796 512.49516434 278.91801262 512.49892044 C276.11651421 512.13142776 276.11651421 512.13142776 274.22627068 510.85914993 C273.11651421 509.13142776 273.11651421 509.13142776 273.11651421 505.13142776 C265.52651421 505.13142776 257.93651421 505.13142776 250.11651421 505.13142776 C249.78651421 506.78142776 249.45651421 508.43142776 249.11651421 510.13142776 C246.01343579 512.20014671 245.35803426 512.38216668 241.84531307 512.38869667 C240.96892463 512.39514556 240.09253618 512.40159446 239.18959051 512.40823877 C238.2259955 512.40514156 237.26240049 512.40204436 236.26960564 512.3988533 C235.24645396 512.40338441 234.22330228 512.40791553 233.169146 512.41258395 C229.72390379 512.42529341 226.27881835 512.42360332 222.83355522 512.42195511 C220.3698538 512.42793652 217.90615426 512.43474116 215.4424572 512.44231033 C209.43298535 512.45818089 203.42357564 512.46442081 197.41408861 512.46553509 C192.52581307 512.46648536 187.63755047 512.47059461 182.74927902 512.47693634 C168.88272769 512.49455886 155.01620734 512.50377442 141.14964474 512.50227539 C140.40177075 512.50219548 139.65389675 512.50211557 138.88335991 512.50203323 C138.13456922 512.50195147 137.38577852 512.50186971 136.6142972 512.50178547 C124.49780404 512.50097378 112.38143555 512.52007917 100.26497842 512.54830997 C87.81660002 512.57708433 75.36828231 512.59084755 62.91986984 512.58912241 C55.93417696 512.58845976 48.94861452 512.59389649 41.96295166 512.61547852 C35.38593203 512.63566766 28.80913987 512.63497001 22.23209 512.62044525 C19.82312556 512.61835837 17.41414384 512.62305077 15.00520897 512.63516617 C-4.00743864 512.72456118 -19.4806835 510.87955723 -33.88348579 497.13142776 C-45.05164175 484.35551671 -48.35431409 469.89714242 -48.26443672 453.26314163 C-48.26790134 451.90269742 -48.27267126 450.54225602 -48.27861845 449.18182039 C-48.29104662 445.47686093 -48.28499597 441.77213575 -48.2756598 438.06717587 C-48.26883629 434.05907736 -48.27936645 430.05101747 -48.28759956 426.04292679 C-48.30090114 418.20653224 -48.29807602 410.37022415 -48.28936164 402.53382629 C-48.28257525 396.16686257 -48.28167249 389.799923 -48.28493309 383.4329567 C-48.28539279 382.52541898 -48.28585249 381.61788126 -48.28632612 380.6828424 C-48.28728532 378.83906773 -48.28825796 376.99529306 -48.28924389 375.1515184 C-48.29778629 357.88779886 -48.28797971 340.62412721 -48.27184279 323.36041552 C-48.2584225 308.54382799 -48.260784 293.72731092 -48.27459908 278.91072464 C-48.29064397 261.69465363 -48.29698151 244.47862445 -48.28776228 227.26254702 C-48.28680664 225.42815559 -48.28586353 223.59376415 -48.28493309 221.75937271 C-48.28447026 220.85684724 -48.28400744 219.95432178 -48.28353059 219.02444705 C-48.28093877 212.66023034 -48.28531543 206.29604015 -48.29237175 199.93182755 C-48.30077402 192.18371226 -48.29853274 184.43568819 -48.28252952 176.68758339 C-48.27463239 172.73363309 -48.27157988 168.77983503 -48.28147697 164.82588577 C-48.29039359 161.20908842 -48.28554165 157.59258496 -48.26954432 153.9758144 C-48.26458773 152.04273917 -48.27441963 150.10964365 -48.28471601 148.17658949 C-48.27298115 146.46191315 -48.27298115 146.46191315 -48.26100922 144.71259689 C-48.26052216 143.7242345 -48.2600351 142.73587211 -48.25953329 141.71755934 C-47.80968002 138.62385503 -47.1380527 137.29118457 -44.88348579 135.13142776 C-43.23348579 134.80142776 -41.58348579 134.47142776 -39.88348579 134.13142776 C-39.88348579 128.19142776 -39.88348579 122.25142776 -39.88348579 116.13142776 C-41.86348579 115.47142776 -43.84348579 114.81142776 -45.88348579 114.13142776 C-48.23914893 110.59793306 -48.14106639 109.10972577 -48.158144 104.92268753 C-48.16767601 103.64027679 -48.17720802 102.35786606 -48.18702888 101.03659439 C-48.18676723 99.63200732 -48.1858291 98.22742024 -48.18426704 96.82283401 C-48.1881572 95.37613172 -48.19249253 93.92943056 -48.19725227 92.48273087 C-48.20472059 89.4437987 -48.20442177 86.40498263 -48.19915962 83.36604691 C-48.19340703 79.50302992 -48.21018961 75.640499 -48.2335043 71.77756214 C-48.24837273 68.78406443 -48.24909499 65.79067968 -48.24599457 62.79715157 C-48.24650266 61.37523256 -48.2516424 59.95330634 -48.26180649 58.53142357 C-48.36238665 42.47281014 -45.26254467 26.97474041 -33.84832954 14.93611526 C-24.585908 6.42868236 -12.76165701 0.01519091 0 0 Z " fill="#F3F3FE" transform="translate(51.88348579406738,-0.13142776489257813)"/>
<path d="M0 0 C1.21053547 -0.00384115 2.42107094 -0.00768229 3.6682893 -0.01163983 C5.01342724 -0.0108596 6.35856511 -0.00998081 7.70370293 -0.00901413 C9.13133476 -0.01159789 10.55896588 -0.01461108 11.98659599 -0.01801753 C15.9146022 -0.02608965 19.84259014 -0.02787722 23.77060366 -0.028615 C28.00526133 -0.03046521 32.2399095 -0.03801245 36.47456169 -0.04475021 C45.73709625 -0.05833615 54.99962649 -0.06435882 64.26216936 -0.06876087 C70.04604528 -0.07152318 75.82991953 -0.07576054 81.61379433 -0.08026505 C97.62801636 -0.09245866 113.64223705 -0.1027574 129.65646362 -0.10614014 C130.68156862 -0.1063597 131.70667362 -0.10657927 132.76284241 -0.10680549 C134.30418235 -0.10713291 134.30418235 -0.10713291 135.87666047 -0.10746694 C137.95889036 -0.1079104 140.04112025 -0.10835697 142.12335014 -0.10880661 C143.15620836 -0.10902804 144.18906657 -0.10924947 145.25322352 -0.10947761 C161.98483744 -0.11342462 178.71640777 -0.13087528 195.44800486 -0.15416613 C212.62663003 -0.17788616 229.80523334 -0.19034231 246.98387516 -0.19150805 C256.62877072 -0.19242451 266.27360953 -0.1981694 275.91848946 -0.21632767 C284.13250409 -0.23173752 292.34644443 -0.23684393 300.56047077 -0.22858956 C304.7500447 -0.22468603 308.93946904 -0.22559807 313.12902451 -0.23964691 C316.96848625 -0.25240378 320.80768629 -0.25117276 324.64714776 -0.2390562 C326.68553521 -0.23618044 328.72392726 -0.24802149 330.76227868 -0.26047826 C345.10733518 -0.18338392 357.66293058 4.22960506 368.27667046 14.17049026 C377.11905392 23.5948565 383.25082965 36.08374843 383.23676872 49.17447281 C383.23883072 50.66146683 383.23883072 50.66146683 383.24093437 52.17850113 C383.2373391 53.25456116 383.23374382 54.33062119 383.2300396 55.43928909 C383.23018562 56.58118698 383.23033165 57.72308487 383.2304821 58.89958572 C383.22978589 62.6708962 383.22200705 66.44215718 383.21417046 70.21345901 C383.21230524 72.82948149 383.21088183 75.44550431 383.20988274 78.06152725 C383.20677776 84.24145555 383.19857562 90.4213661 383.18853325 96.60128659 C383.17734621 103.63875106 383.17185513 110.67621639 383.16683781 117.71368754 C383.15639231 132.18627676 383.13880902 146.65885201 383.11651421 161.13142776 C383.73357231 160.92284134 384.35063042 160.71425491 384.98638725 160.49934769 C385.79632133 160.2271138 386.60625542 159.95487991 387.44073296 159.67439651 C388.24341606 159.40393509 389.04609917 159.13347366 389.873106 158.85481644 C402.73546832 154.70733798 416.23683291 157.22997602 428.24151421 162.75642776 C441.47607306 169.79755908 449.51689951 180.52123076 454.38995171 194.52595901 C458.40683255 208.93058011 456.26390982 223.90525653 449.10223198 236.9384346 C443.58223617 245.81447385 436.0869599 252.5142195 427.84448195 258.79768801 C407.601155 274.24881558 384.72827087 291.87683486 380.51376152 318.42978287 C377.85108131 338.85887855 378.98311328 359.72437443 380.16738892 380.22550488 C380.75656776 390.59713726 380.99964614 400.97355585 381.24542046 411.35799026 C381.50427282 421.97362155 381.79027225 432.58204025 382.30071831 443.18892288 C382.37469458 444.8037537 382.44852503 446.41859121 382.52219963 448.03343582 C382.65801472 450.99758156 382.8155995 453.95938994 382.98670769 456.92168045 C383.70586308 471.17911871 380.04431005 484.2314319 370.86651421 495.44392776 C362.65134382 504.10850572 350.37521824 511.68740594 338.18803215 512.27186966 C337.05124519 512.27869766 335.91445824 512.28552567 334.74322319 512.29256058 C333.45185951 512.30216812 332.16049583 512.31177567 330.82999992 512.32167435 C329.4242044 512.32652085 328.01840682 512.33080004 326.61260796 512.33455276 C325.16819571 512.34030714 323.72378348 512.34606483 322.27937126 512.35182571 C319.25576231 512.36231466 316.2321798 512.36817196 313.20855522 512.37166214 C309.33238482 512.37716083 305.45656321 512.40122652 301.58050251 512.42963409 C298.5993986 512.44824018 295.61837937 512.45346484 292.63722229 512.45499802 C291.20785477 512.45802666 289.77848882 512.46606236 288.34917831 512.4791832 C286.35299294 512.49620898 284.35666325 512.49252367 282.36041069 512.48787308 C281.22441933 512.49151871 280.08842796 512.49516434 278.91801262 512.49892044 C276.11651421 512.13142776 276.11651421 512.13142776 274.25752068 510.82008743 C272.27277767 507.8827198 272.64476909 505.55157984 273.11651421 502.13142776 C274.85772514 499.44466019 274.85772514 499.44466019 278.11651421 497.13142776 C282.32562658 496.38901872 286.49244007 496.45821505 290.75713921 496.49470901 C291.99389397 496.48433105 293.23064873 496.47395309 294.50488091 496.46326065 C297.78960749 496.43858418 301.0734873 496.4341238 304.35827446 496.44112015 C308.96738016 496.4475639 313.57631647 496.42345753 318.18530083 496.39245987 C320.63500606 496.37763468 323.08480882 496.37368779 325.53454399 496.38223648 C337.18453285 496.34357571 346.68919448 494.51243963 355.80401421 486.88142776 C365.42136369 475.44457973 367.57828804 465.51706408 367.45709038 450.68562698 C367.45624249 449.25559889 367.45672241 447.82556949 367.45841789 446.39554214 C367.45927295 442.5428347 367.44172733 438.69041175 367.42069602 434.83776999 C367.40184687 430.8005899 367.40017232 426.76340214 367.3966198 422.72618484 C367.3873234 415.09431454 367.36274246 407.4625743 367.33257133 399.83076108 C367.2989521 391.13663802 367.28252246 382.44250851 367.26748502 373.74833655 C367.23619055 355.87596009 367.18347723 338.00370441 367.11651421 320.13142776 C366.63998248 320.60888128 366.16345076 321.0863348 365.67247868 321.57825661 C354.0828099 333.18999972 342.49038223 344.79898064 330.8948679 356.40488625 C325.28745785 362.01745486 319.6809892 367.63095788 314.07671928 373.24666214 C309.19263294 378.1407087 304.3067975 383.03300109 299.41884452 387.92318594 C296.83024704 390.51308825 294.24254016 393.10386664 291.6569252 395.69674683 C288.77206773 398.58964468 285.88331264 401.4786196 282.99419975 404.36726761 C282.1353669 405.22969574 281.27653404 406.09212387 280.39167595 406.98068619 C279.60503563 407.76595184 278.81839531 408.5512175 278.0079174 409.36027908 C276.9833445 410.38623467 276.9833445 410.38623467 275.93807316 411.43291664 C272.80441988 414.35488903 270.2235623 415.48953386 266.10870171 416.35017776 C265.12127983 416.56029495 264.13385796 416.77041214 263.11651421 416.98689651 C261.56963921 417.30593948 261.56963921 417.30593948 259.99151421 417.63142776 C257.96804778 418.05837401 255.94460989 418.48545557 253.92120171 418.91267776 C252.94119194 419.11634964 251.96118217 419.32002151 250.95147514 419.52986526 C247.64203368 420.23210982 244.34865676 420.99483399 241.05840874 421.78181839 C239.11651421 422.13142776 239.11651421 422.13142776 235.11651421 422.13142776 C234.72786186 423.87166214 234.72786186 423.87166214 234.33135796 425.64705276 C230.39726176 441.27348901 219.98034106 455.80358685 206.11651421 464.13142776 C187.72556516 474.58450169 168.45490364 478.64122028 147.71612358 473.03865433 C128.80026636 467.28291184 114.10430507 453.97273281 104.87823296 436.77205276 C97.12265804 421.41724873 95.56127792 401.73175999 100.11651421 385.13142776 C106.65055444 366.08813945 119.25034745 351.41523266 137.11651421 342.13142776 C147.48166775 337.49134789 156.22682979 335.95111187 167.49151421 335.94392776 C168.49440483 335.93168167 169.49729546 335.91943558 170.53057671 335.90681839 C179.08608621 335.89002092 186.10469565 337.67410503 194.13604546 340.54549026 C196.25174915 341.27327873 196.25174915 341.27327873 199.11651421 341.13142776 C200.52454599 339.86683403 200.52454599 339.86683403 201.8862896 338.05525589 C205.33369354 333.94677298 208.9969659 330.13719658 212.78619194 326.34822464 C213.41501306 325.71886253 214.04383417 325.08950043 214.69171047 324.44106674 C216.72589358 322.40880719 218.76295734 320.37946229 220.80010796 318.35017776 C222.22521833 316.92693533 223.65010596 315.50346982 225.07478142 314.07979202 C228.80268429 310.35568474 232.53358176 306.63459193 236.26513481 302.91414261 C240.08135851 299.108197 243.89470938 295.29937532 247.70831108 291.49080276 C255.17492098 284.03487795 262.64470121 276.58213814 270.11651421 269.13142776 C269.70459831 268.65443939 269.29268242 268.17745102 268.86828423 267.68600845 C268.05771568 266.74452202 268.05771568 266.74452202 267.23077202 265.78401566 C266.69510612 265.16265228 266.15944023 264.54128891 265.60754204 263.90109634 C258.81866084 255.84352056 255.59400109 248.77755975 255.80401421 238.15877151 C257.11908325 225.41904012 267.94065986 215.9925898 276.48370171 207.46345901 C277.48750854 206.45575475 278.49109529 205.44783122 279.49447441 204.43970108 C281.58727958 202.33948071 283.68385561 200.24311549 285.78301811 198.14925003 C288.4564946 195.48157571 291.11840716 192.80268339 293.77737045 190.12055302 C295.84318481 188.03992744 297.91596973 185.96635447 299.99075508 183.89467812 C300.97457197 182.91035218 301.95606681 181.92369909 302.93505287 180.93456841 C311.48095732 172.31097308 319.17550383 165.31406854 331.74151421 164.69392776 C341.24200052 164.90583452 348.55416123 168.17267526 355.24151421 174.88142776 C355.94534233 175.66002151 356.64917046 176.43861526 357.37432671 177.24080276 C358.98580741 179.21386403 358.98580741 179.21386403 361.11651421 180.13142776 C361.38463921 179.53330276 361.65276421 178.93517776 361.92901421 178.31892776 C363.11568827 176.13294923 364.21250533 174.71810183 366.11651421 173.13142776 C366.77651421 173.13142776 367.43651421 173.13142776 368.11651421 173.13142776 C368.05586531 156.87565353 367.97828515 140.62006062 367.88079929 124.36446953 C367.83592079 116.8159373 367.79648804 109.26745141 367.77007866 101.71883011 C367.74703396 95.13595347 367.71356431 88.55322446 367.66781265 81.97046506 C367.64396716 78.48809299 367.62518183 75.00586634 367.6189003 71.52341461 C367.61167511 67.626477 367.58116508 63.72990225 367.54888725 59.83308792 C367.55103989 58.11972748 367.55103989 58.11972748 367.55323601 56.37175369 C367.4157984 44.59980888 364.51332208 35.40339367 356.80401421 26.44392776 C353.46862889 23.57394505 349.93947405 21.29751833 346.11651421 19.13142776 C345.51967827 18.77435745 344.92284233 18.41728714 344.30792046 18.04939651 C337.28776421 15.10868935 328.9524713 15.98319141 321.51023674 15.98425674 C320.11713872 15.98095391 318.72404165 15.97722746 317.33094579 15.97311527 C313.51233395 15.96313562 309.69373782 15.95938503 305.8751148 15.95672596 C301.75298359 15.95281111 297.63086469 15.94323391 293.50874138 15.93451309 C283.5612148 15.91478634 273.61368725 15.90468922 263.66614601 15.8957853 C258.97884348 15.8913979 254.29154207 15.88603243 249.60424042 15.88079643 C234.01967383 15.86379117 218.43510793 15.84929606 202.85053349 15.84204769 C198.80988057 15.8401379 194.76922765 15.83821754 190.72857475 15.83626175 C189.72432857 15.83577801 188.7200824 15.83529427 187.68540452 15.83479587 C171.40985642 15.82649184 155.13438173 15.80114548 138.8588657 15.76868107 C122.14119087 15.73560691 105.42355337 15.71759878 88.70584565 15.71440345 C79.32254402 15.71223915 69.93934958 15.70350165 60.55607986 15.67794228 C52.5671996 15.65623078 44.57845259 15.64818724 36.58954617 15.65790906 C32.51534336 15.66245188 28.44141549 15.66056853 24.36725044 15.64114761 C20.63331314 15.62350243 16.89985106 15.62452425 13.16590861 15.64004491 C11.18431939 15.64353851 9.2027251 15.62740511 7.22120541 15.61044043 C-3.6194036 15.68841492 -13.07297599 18.29861274 -20.91864204 26.17439651 C-28.05042528 33.90157363 -31.00520357 40.14020255 -31.00946236 50.67830276 C-31.01326912 51.98315628 -31.01707588 53.2880098 -31.020998 54.63240433 C-31.02119186 55.32467117 -31.02138573 56.01693802 -31.02158546 56.73018265 C-31.02502073 59.65657103 -31.04640194 62.58274111 -31.06681633 65.50905228 C-31.10475184 70.94961491 -31.13609714 76.3899362 -31.13397408 81.83064651 C-31.13318655 85.62334619 -31.15655849 89.4152341 -31.19585609 93.20772171 C-31.20630469 94.64933497 -31.20784841 96.09104203 -31.20020485 97.53267288 C-31.19057169 99.54998664 -31.21455448 101.56737562 -31.23993111 103.58455276 C-31.24357674 104.73085159 -31.24722237 105.87715042 -31.25097847 107.05818558 C-32.07698632 111.07161291 -33.76407967 112.56376374 -36.88348579 115.13142776 C-39.38348579 116.13142776 -39.38348579 116.13142776 -41.88348579 116.13142776 C-46.48050072 113.93739791 -46.48050072 113.93739791 -47.88348579 111.13142776 C-47.99042965 109.10179521 -48.03235784 107.06862405 -48.04461861 105.03621292 C-48.05422615 103.75372665 -48.06383369 102.47124039 -48.07373238 101.1498909 C-48.07858423 99.7400925 -48.0828621 98.33029203 -48.08661079 96.92049026 C-48.09236673 95.47235997 -48.09812441 94.02422968 -48.10388374 92.5760994 C-48.11440328 89.53122478 -48.12023771 86.4863766 -48.12372017 83.44148636 C-48.12916527 79.57062554 -48.15310235 75.70012358 -48.18169212 71.82937431 C-48.20048579 68.83160324 -48.20553319 65.83391505 -48.20705605 62.83609009 C-48.21005256 61.41137001 -48.21797744 59.98665032 -48.23124123 58.56198883 C-48.37005689 42.48590213 -45.27568157 26.98859596 -33.84832954 14.93611526 C-24.585908 6.42868236 -12.76165701 0.01519091 0 0 Z " fill="#010202" transform="translate(51.88348579406738,-0.13142776489257813)"/>
<path d="M0 0 C21.12479343 16.56442716 35.715131 41.11278309 38.9921875 67.94921875 C39.10173678 69.61436775 39.1826273 71.28153329 39.2421875 72.94921875 C39.29375 74.04234375 39.3453125 75.13546875 39.3984375 76.26171875 C40.11934824 104.61754118 29.7497954 130.13455685 10.578125 150.82421875 C-7.06292821 169.11128236 -30.74571868 180.4387635 -56.26171875 181.1328125 C-66.22291042 181.29432779 -76.03514876 181.35899071 -85.7578125 178.94921875 C-86.82257813 178.71589844 -87.88734375 178.48257813 -88.984375 178.2421875 C-111.62276916 172.64646705 -133.24921746 157.19017888 -146.1015625 137.72265625 C-151.87821146 128.04949408 -157.71687794 117.96450878 -160.3828125 106.94921875 C-160.62257813 105.97984375 -160.86234375 105.01046875 -161.109375 104.01171875 C-166.7025287 77.59586029 -162.84076138 49.92935424 -148.72265625 26.9140625 C-132.5031582 2.43971057 -109.3723035 -14.23105369 -80.35546875 -20.16796875 C-51.44732723 -25.24099939 -23.30192131 -17.32791599 0 0 Z " fill="#020303" transform="translate(281.7578125,59.05078125)"/>
<path d="M0 0 C10.28567104 5.51834415 16.47516804 13.40227353 20.4609375 24.3203125 C20.88296085 27.0846337 20.93905734 29.77738119 20.8984375 32.5703125 C20.88941406 33.31611572 20.88039063 34.06191895 20.87109375 34.83032227 C20.28051416 53.80884354 5.64821536 65.43551687 -6.88769531 77.9753418 C-8.43940434 79.53468315 -9.99071393 81.09442207 -11.54165649 82.65452576 C-15.73059317 86.86528687 -19.92597328 91.06956818 -24.12328434 95.27198005 C-26.74556007 97.89790852 -29.36653532 100.52512805 -31.98708344 103.15278053 C-41.59972184 112.79111433 -51.21908234 122.42269548 -60.84271583 132.05005006 C-68.43432053 139.64520817 -76.01407534 147.25207547 -83.58878985 154.86407485 C-91.37676387 162.69007545 -99.17422577 170.50651458 -106.98086429 178.31389743 C-111.35978542 182.69361329 -115.73459676 187.07725634 -120.09970856 191.47073936 C-124.19608192 195.59314693 -128.30408746 199.70358613 -132.42155075 203.80492592 C-133.93361709 205.31516708 -135.44138188 206.82972854 -136.94459152 208.3487854 C-138.98963355 210.41407516 -141.04930634 212.46353336 -143.11358643 214.50956726 C-143.71124793 215.12042874 -144.30890944 215.73129021 -144.9246819 216.36066264 C-146.60167313 218.00374889 -146.60167313 218.00374889 -149.5390625 220.3203125 C-153.69519985 219.84817139 -155.59969691 217.62261133 -158.49121094 214.70874023 C-158.96972 214.23066925 -159.44822906 213.75259827 -159.9412384 213.26004028 C-161.51752211 211.68167036 -163.08291979 210.09294908 -164.6484375 208.50390625 C-165.74065678 207.40609044 -166.83354129 206.3089361 -167.92706299 205.2124176 C-170.80081123 202.32722518 -173.66543586 199.4331368 -176.52825928 196.53710938 C-179.45218919 193.58246954 -182.38464976 190.63632351 -185.31640625 187.68945312 C-191.06567959 181.90802314 -196.80534314 176.11716825 -202.5390625 170.3203125 C-201.26267983 167.52610941 -199.94026003 165.47008573 -197.77526855 163.29645634 C-197.20965997 162.72378216 -196.64405138 162.15110798 -196.06130314 161.56108004 C-195.1289366 160.63233613 -195.1289366 160.63233613 -194.17773438 159.68482971 C-193.51746215 159.01932081 -192.85718992 158.3538119 -192.17690945 157.66813606 C-189.95864607 155.43484676 -187.73326698 153.20878785 -185.5078125 150.98266602 C-183.91745693 149.38469055 -182.32750593 147.78631235 -180.7379303 146.18756104 C-176.41401643 141.84167451 -172.08352156 137.50240427 -167.75114822 133.16495252 C-165.04409246 130.45425548 -162.33834019 127.74226423 -159.63302612 125.02982903 C-152.13701509 117.51435786 -144.63953267 110.00036578 -137.13523865 102.49316502 C-136.65510388 102.01284268 -136.17496911 101.53252034 -135.6802848 101.03764277 C-134.70698897 100.0639807 -133.73369187 99.0903199 -132.7603935 98.11666036 C-132.03571014 97.39170279 -132.03571014 97.39170279 -131.29638672 96.65209961 C-130.81267062 96.16820296 -130.32895452 95.68430631 -129.83058035 95.18574613 C-122.0001461 87.35177335 -114.18151234 79.50613783 -106.36803794 71.65525294 C-98.33845508 63.58753469 -90.29928505 55.52949406 -82.25097847 47.48044533 C-77.73540186 42.96407613 -73.22388301 38.44382673 -68.72216797 33.91363716 C-64.48476682 29.65003592 -60.23551489 25.39860999 -55.97698784 21.15611267 C-54.41907627 19.60001417 -52.86539998 18.03966166 -51.3163929 16.47469902 C-36.88511746 1.90392602 -21.01670094 -9.02518989 0 0 Z " fill="#817BD0" transform="translate(471.5390625,175.6796875)"/>
<path d="M0 0 C3.02384375 3.08891175 3.37474203 5.35396461 3.37358761 9.60237312 C3.38057735 10.75020747 3.3875671 11.89804182 3.39476866 13.08065903 C3.38340457 14.97313317 3.38340457 14.97313317 3.37181091 16.90383911 C3.37438512 18.25722679 3.37828573 19.61061249 3.3834005 20.96399295 C3.39369231 24.68684975 3.38535909 28.40947018 3.37410367 32.13231564 C3.36526346 36.14611896 3.37374952 40.15988837 3.38031006 44.1736908 C3.38947487 51.13139111 3.38813129 58.0890255 3.38012505 65.04672623 C3.36890155 75.11732232 3.37792776 85.18782433 3.39268685 95.25841223 C3.41647229 111.61107528 3.42982608 127.96372674 3.43383789 144.31640625 C3.43408276 145.2954334 3.43432763 146.27446055 3.43457992 147.28315519 C3.43712458 158.20030599 3.43769334 169.11745591 3.43664551 180.03460693 C3.4363125 183.99019368 3.4360271 187.94578043 3.43579102 191.90136719 C3.43569683 193.36539212 3.43569683 193.36539212 3.43560075 194.85899331 C3.4349956 211.14267218 3.44989184 227.42629756 3.47662407 243.70995414 C3.49242236 253.75224286 3.49469426 263.79435881 3.47949005 273.83664934 C3.47001639 280.72210507 3.4747938 287.6074568 3.49070387 294.49290033 C3.49938982 298.46378634 3.50155899 302.43439589 3.48617744 306.40526772 C3.4721916 310.04497178 3.47676572 313.68417664 3.49569846 317.32385395 C3.50098799 319.25487243 3.48665824 321.1859144 3.47148794 323.11688054 C3.56576988 334.54645181 6.52745232 342.43086874 14.421875 350.73046875 C20.67616776 356.23614161 27.9208231 360.11533433 36.33850861 360.13307858 C37.63735276 360.13944014 37.63735276 360.13944014 38.9624362 360.14593023 C39.90912058 360.1455441 40.85580497 360.14515797 41.83117676 360.14476013 C42.84040963 360.14828698 43.8496425 360.15181382 44.88945818 360.15544754 C48.28112777 360.16614714 51.67276928 360.16981768 55.06445312 360.17358398 C57.49202086 360.17988815 59.91958744 360.1866538 62.34715271 360.19384766 C67.57944918 360.20852509 72.81174401 360.22032704 78.04405212 360.22979546 C85.6134586 360.24367169 93.18283174 360.26485948 100.75221425 360.28822399 C113.03874045 360.32613481 125.32527267 360.36110293 137.61181641 360.39282227 C138.34718701 360.39472276 139.08255761 360.39662325 139.84021217 360.39858133 C150.28006589 360.42542301 160.71992432 360.44929568 171.15978783 360.47196633 C171.89515843 360.47356363 172.63052904 360.47516094 173.38818359 360.47680664 C174.12265899 360.47840011 174.8571344 360.47999357 175.61386663 360.48163532 C187.85433159 360.50838973 200.09476088 360.54278168 212.33518744 360.58346039 C219.88690033 360.60824946 227.43857483 360.62656826 234.99032199 360.636616 C240.77344584 360.64487105 246.55650125 360.66335699 252.33958626 360.68567657 C254.7148105 360.69317018 257.09004833 360.69723422 259.46528435 360.69767189 C262.69990338 360.69874949 265.93425046 360.71195301 269.16882324 360.72825623 C270.11550763 360.72563937 271.06219201 360.72302252 272.0375638 360.72032636 C272.90345991 360.72717516 273.76935601 360.73402395 274.66149139 360.74108028 C275.40813159 360.74281653 276.1547718 360.74455278 276.92403746 360.74634165 C279.34515722 361.04217418 280.93273529 361.71635479 283 363 C284.74067741 365.98401842 285.01623923 367.72393306 284.8125 371.1875 C284 374 284 374 281 376 C279.02538115 376.25299966 279.02538115 376.25299966 276.72879887 376.25726891 C275.85241042 376.2637178 274.97602198 376.27016669 274.07307631 376.276811 C273.1094813 376.2737138 272.14588629 376.2706166 271.15309143 376.26742554 C270.12993975 376.27195665 269.10678807 376.27648776 268.0526318 376.28115618 C264.60738959 376.29386565 261.16230414 376.29217556 257.71704102 376.29052734 C255.25333959 376.29650875 252.78964005 376.3033134 250.32594299 376.31088257 C244.31647114 376.32675312 238.30706143 376.33299305 232.29757441 376.33410732 C227.40929887 376.33505759 222.52103627 376.33916685 217.63276482 376.34550858 C203.76621349 376.36313109 189.89969314 376.37234665 176.03313053 376.37084763 C175.28525654 376.37076772 174.53738255 376.3706878 173.7668457 376.37060547 C173.01805501 376.37052371 172.26926432 376.37044195 171.497783 376.37035771 C159.38128983 376.36954602 147.26492135 376.3886514 135.14846421 376.4168822 C122.70008582 376.44565657 110.25176811 376.45941978 97.80335563 376.45769465 C90.81766275 376.45703199 83.83210031 376.46246873 76.84643745 376.48405075 C70.26941782 376.50423989 63.69262566 376.50354224 57.11557579 376.48901749 C54.70661135 376.4869306 52.29762964 376.491623 49.88869476 376.5037384 C30.87604716 376.59313342 15.4028023 374.74812946 1 361 C-10.16815595 348.22408895 -13.4708283 333.76571466 -13.38095093 317.13171387 C-13.38441554 315.77126965 -13.38918547 314.41082825 -13.39513266 313.05039263 C-13.40756082 309.34543317 -13.40151018 305.64070798 -13.39217401 301.9357481 C-13.3853505 297.92764959 -13.39588066 293.91958971 -13.40411377 289.91149902 C-13.41741534 282.07510448 -13.41459022 274.23879639 -13.40587585 266.40239853 C-13.39908945 260.0354348 -13.39818669 253.66849524 -13.4014473 247.30152893 C-13.401907 246.39399121 -13.40236669 245.4864535 -13.40284032 244.55141464 C-13.40379952 242.70763997 -13.40477216 240.8638653 -13.4057581 239.02009064 C-13.4143005 221.75637109 -13.40449391 204.49269944 -13.388357 187.22898775 C-13.37493671 172.41240022 -13.37729821 157.59588316 -13.39111328 142.77929688 C-13.40715818 125.56322587 -13.41349572 108.34719669 -13.40427649 91.13111925 C-13.40332085 89.29672782 -13.40237774 87.46233639 -13.4014473 85.62794495 C-13.40098447 84.72541948 -13.40052164 83.82289401 -13.40004479 82.89301929 C-13.39745298 76.52880258 -13.40182963 70.16461239 -13.40888596 63.80039978 C-13.41728823 56.0522845 -13.41504694 48.30426042 -13.39904372 40.55615562 C-13.3911466 36.60220532 -13.38809409 32.64840726 -13.39799118 28.69445801 C-13.4069078 25.07766066 -13.40205586 21.46115719 -13.38605852 17.84438664 C-13.38110194 15.91131141 -13.39093383 13.97821589 -13.40123022 12.04516172 C-13.38949535 10.33048539 -13.38949535 10.33048539 -13.37752342 8.58116913 C-13.37703637 7.59280674 -13.37654931 6.60444434 -13.37604749 5.58613157 C-12.93388936 2.54534784 -12.12777788 1.19142579 -10 -1 C-5.9761071 -2.34129763 -3.92371185 -1.47139194 0 0 Z " fill="#030304" transform="translate(17,136)"/>
<path d="M0 0 C18.4302759 13.97495703 28.68506549 32.32898578 33.34863281 54.77734375 C33.61015137 55.74027344 33.61015137 55.74027344 33.87695312 56.72265625 C36.73496133 69.1724477 34.21430722 82.86346197 30.34863281 94.77734375 C29.98640625 95.9065625 29.62417969 97.03578125 29.25097656 98.19921875 C23.65579569 114.05539234 13.63059754 127.50893404 0.34863281 137.77734375 C-0.31136719 137.77734375 -0.97136719 137.77734375 -1.65136719 137.77734375 C-1.79832031 137.17148438 -1.94527344 136.565625 -2.09667969 135.94140625 C-5.04788667 124.91678246 -10.85482123 116.96965346 -18.65136719 108.77734375 C-17.26935806 105.54567594 -15.7833181 103.86218998 -13.02636719 101.71484375 C-1.69587432 92.04999503 4.87700399 78.51435917 6.34863281 63.77734375 C7.40775294 46.85395611 3.41293415 31.74227177 -7.63647461 18.68945312 C-12.61276548 13.18607577 -17.96924776 9.0369142 -24.65136719 5.77734375 C-25.41320312 5.390625 -26.17503906 5.00390625 -26.95996094 4.60546875 C-40.09581122 -1.67788424 -57.45222084 -3.000966 -71.34423828 1.52050781 C-87.66470984 7.713098 -98.82199596 18.97553722 -106.24121094 34.48046875 C-113.21650552 50.78835967 -111.63462486 67.35182672 -105.19042969 83.5 C-100.96485008 92.49812511 -93.75820804 102.22392332 -84.65136719 106.77734375 C-84.65136719 107.43734375 -84.65136719 108.09734375 -84.65136719 108.77734375 C-85.66199219 109.58171875 -86.67261719 110.38609375 -87.71386719 111.21484375 C-95.8987213 118.04382304 -99.95939395 128.02849275 -103.65136719 137.77734375 C-121.33192902 127.35034575 -131.29403033 107.58630372 -136.71777344 88.453125 C-137.89457536 83.81977516 -138.52856172 79.54508541 -138.65136719 74.77734375 C-138.72484375 73.7203125 -138.79832031 72.66328125 -138.87402344 71.57421875 C-139.8249233 49.04520662 -131.16723948 27.07994703 -116.20605469 10.34765625 C-84.59572645 -21.45600733 -36.38619809 -26.93998817 0 0 Z " fill="#76C8E9" transform="translate(271.6513671875,70.22265625)"/>
<path d="M0 0 C0.92490234 -0.01160156 1.84980469 -0.02320313 2.80273438 -0.03515625 C12.26202436 0.00461652 20.08451268 2.3453993 28.0625 7.375 C27.806254 10.39870278 27.4728386 13.36999507 27.0625 16.375 C26.92457031 17.42300781 26.78664063 18.47101563 26.64453125 19.55078125 C25.07838483 28.49568463 21.76538512 32.51139322 15.0625 38.375 C13.97465704 39.5605688 12.91102741 40.76889363 11.875 42 C7.72552239 46.84596204 3.33092539 51.46176928 -1.05151367 56.09619141 C-3.85840615 59.07935843 -6.58922751 62.00573947 -8.9375 65.375 C-12.85873271 64.06792243 -13.67620994 62.24558147 -16 58.875 C-18.42920429 55.01786321 -18.42920429 55.01786321 -21.9375 52.375 C-26.06814626 51.99884874 -26.06814626 51.99884874 -29.8125 53.5 C-31.5610986 56.41433101 -31.38794509 57.96994051 -30.9375 61.375 C-29.14284543 64.78960825 -26.93558465 67.87097426 -24.6875 71 C-24.10097656 71.845625 -23.51445312 72.69125 -22.91015625 73.5625 C-18.8700242 79.3540142 -18.8700242 79.3540142 -13.9375 84.375 C-9.58765987 84.45980193 -7.53093187 83.83882244 -4.09375 81.15234375 C-3.2171875 80.21519531 -2.340625 79.27804687 -1.4375 78.3125 C-0.96393066 77.81371338 -0.49036133 77.31492676 -0.00244141 76.80102539 C3.18082247 73.42294533 6.27776751 69.96233292 9.29296875 66.43359375 C12.80605948 62.34662065 16.44924332 58.37334299 20.0625 54.375 C22.05273038 56.36523038 22.62394613 57.53283215 23.6875 60.0625 C26.70200394 66.22598389 31.52523662 69.96540923 37.4375 73.25 C41.96898201 74.656322 46.34155292 75.09953226 51.0625 75.375 C47.76860444 86.663627 39.12939818 96.28075834 29.03515625 102.12890625 C14.70683366 109.47903465 -0.22808011 111.69226503 -15.9375 107.375 C-30.35123158 102.31071593 -41.43758178 92.95051793 -48.75 79.5625 C-55.08837526 65.79366455 -56.3315023 49.8028107 -51.2578125 35.46875 C-44.40654798 19.41489941 -33.78735801 9.28975242 -17.88061523 2.49658203 C-11.88857047 0.24731798 -6.35824054 -0.07942285 0 0 Z " fill="#00CC8C" transform="translate(218.9375,350.625)"/>
<path d="M0 0 C11.46049713 6.39580151 19.97816875 15.83348041 23.7578125 28.5390625 C26.88982421 41.44802967 24.34016973 53.33216461 18.0703125 64.7890625 C11.51596099 75.02304995 1.37709444 81.39016834 -10.2421875 84.5390625 C-24.08395754 86.06120307 -35.56775102 84.52969084 -47.0546875 76.2890625 C-55.74708776 68.99561997 -62.55848256 58.93383333 -64.2421875 47.5390625 C-65.20758027 33.8336504 -62.5429681 22.69961986 -54.2421875 11.5390625 C-40.62418353 -3.64920833 -18.64870065 -8.5373847 0 0 Z " fill="#FDD2BB" transform="translate(239.2421875,87.4609375)"/>
<path d="M0 0 C1.18144844 -0.01784798 1.18144844 -0.01784798 2.38676453 -0.03605652 C4.0447934 -0.05251773 5.70299717 -0.055998 7.36108398 -0.04711914 C9.87204259 -0.04299287 12.37490565 -0.10805024 14.88476562 -0.17773438 C23.8350152 -0.27952334 29.90257317 0.14912603 36.70800781 6.61474609 C43.06937962 13.95978372 47.88835672 21.78692472 47.57421875 31.76953125 C27.03970243 41.28460933 2.89142179 43.36999566 -18.671875 35.82421875 C-21.72882793 34.65347082 -24.56683289 33.35783589 -27.42578125 31.76953125 C-25.97322187 20.17073616 -21.67328808 10.49220003 -12.28833008 3.14575195 C-8.23797243 0.31924812 -4.84688723 -0.00463886 0 0 Z " fill="#807ACF" transform="translate(209.42578125,185.23046875)"/>
<path d="M0 0 C1.19308273 -0.0112793 2.38616547 -0.02255859 3.61540222 -0.03417969 C4.92097076 -0.02608276 6.22653931 -0.01798584 7.57167053 -0.00964355 C8.96315239 -0.01506486 10.35462851 -0.02218758 11.74609375 -0.03088379 C15.52307477 -0.04912114 19.2996188 -0.04204776 23.07660747 -0.02936745 C27.0300977 -0.01923977 30.98355053 -0.02863266 34.93704224 -0.03491211 C41.57736425 -0.04219007 48.21750834 -0.03259791 54.85780334 -0.0135498 C62.53211551 0.0082104 70.20600245 0.00117459 77.88030428 -0.02085543 C84.47067906 -0.03901599 91.06092593 -0.04156431 97.65131766 -0.03110075 C101.58679869 -0.02486822 105.52207998 -0.02402323 109.45754814 -0.0372467 C113.15869703 -0.04881396 116.85929871 -0.04076422 120.56038857 -0.01766968 C122.56444677 -0.00986933 124.56855133 -0.02173169 126.57258606 -0.03417969 C128.3664399 -0.01726074 128.3664399 -0.01726074 130.1965332 0 C131.75256209 0.00226215 131.75256209 0.00226215 133.3400259 0.00457001 C136.91655516 0.64258161 138.60537199 1.96852759 141.16175842 4.50793457 C141.97225167 8.31725281 141.56004591 9.88669563 139.46217346 13.15890503 C135.03443484 17.3123679 128.38970954 16.19922148 122.7301178 16.15490723 C121.34833627 16.16168605 119.96656378 16.17059069 118.58480835 16.18145752 C114.83879453 16.20422677 111.09347021 16.19542495 107.34744453 16.17956209 C103.42464993 16.16689051 99.50191378 16.17864668 95.57911682 16.18649292 C88.99181026 16.19558587 82.40478411 16.18361108 75.81752014 16.15979004 C68.20501976 16.13257917 60.59318895 16.1413936 52.98070478 16.16892207 C46.44124358 16.19162244 39.90198378 16.19480877 33.3624959 16.18172872 C29.45828815 16.1739392 25.55439498 16.17287855 21.65020752 16.18941116 C17.97929783 16.20387051 14.30925015 16.19380906 10.63843346 16.16493988 C8.65108801 16.15519024 6.66366953 16.17001689 4.67636108 16.18557739 C-5.03526815 16.07013014 -5.03526815 16.07013014 -8.14256287 13.15890503 C-10.22535663 9.90273114 -10.56461588 8.30122261 -9.83824158 4.50793457 C-6.83616028 0.64027423 -4.82201339 0.00701279 0 0 Z " fill="#010101" transform="translate(153.83824157714844,259.4920654296875)"/>
<path d="M0 0 C3.8341922 2.52893528 6.80854004 5.60227577 9.9375 8.9375 C6.03266632 13.61049695 1.97603642 18.04078418 -2.34326172 22.33178711 C-2.93910568 22.9277771 -3.53494965 23.52376709 -4.14884949 24.13781738 C-6.09426472 26.08254295 -8.04318414 28.0237148 -9.9921875 29.96484375 C-11.35146617 31.32225488 -12.7105224 32.67988879 -14.06936646 34.03773499 C-17.62795447 37.59252433 -21.18953645 41.14429893 -24.75177002 44.69543457 C-28.3936332 48.32702638 -32.03262963 51.96148832 -35.671875 55.59570312 C-42.79929511 62.71243271 -49.92988441 69.82597777 -57.0625 76.9375 C-58.18237609 76.01262344 -59.29729836 75.08174689 -60.41015625 74.1484375 C-61.03156494 73.63071777 -61.65297363 73.11299805 -62.29321289 72.57958984 C-66.19966234 68.95398214 -67.86267096 65.33630329 -68.625 60 C-68.0423257 50.58679384 -59.20974956 43.64100391 -52.9765625 37.453125 C-51.99112976 36.46566643 -51.0061423 35.47776332 -50.02157593 34.48944092 C-47.96713293 32.43060058 -45.9074285 30.37721849 -43.84375 28.32763672 C-41.2121356 25.7131352 -38.59425365 23.08536111 -35.98017311 20.45334244 C-33.95231921 18.41459966 -31.9173144 16.38311518 -29.8801384 14.3536911 C-28.91239237 13.38793182 -27.94682955 12.41997926 -26.98360062 11.44971466 C-11.59784616 -4.02374255 -11.59784616 -4.02374255 0 0 Z " fill="#6058C2" transform="translate(391.0625,181.0625)"/>
<path d="M0 0 C5.47313966 4.56147547 10.53954809 9.40741321 15.55859375 14.4609375 C16.34774673 15.25150543 17.13689972 16.04207336 17.94996643 16.8565979 C20.44818661 19.36037626 22.94289044 21.86762475 25.4375 24.375 C27.13974208 26.08226248 28.84221373 27.78929609 30.54492188 29.49609375 C34.69927363 33.66141898 38.85075081 37.82959219 43 42 C40.257768 44.742232 37.86582389 44.8909786 34.0859375 45.7265625 C33.39746735 45.87910492 32.70899719 46.03164734 31.99966431 46.18881226 C30.53948594 46.51011215 29.07846635 46.82760897 27.61669922 47.14160156 C25.40187836 47.61920397 23.19123212 48.11337357 20.98046875 48.609375 C19.55751342 48.92028746 18.1343422 49.23021385 16.7109375 49.5390625 C15.42493652 49.81959473 14.13893555 50.10012695 12.81396484 50.38916016 C7.35864502 51.26287736 2.74886552 51.89093149 -2.3125 49.3125 C-6.72988506 45.51149425 -6.72988506 45.51149425 -8 42 C-7.96126388 33.19796266 -5.82515679 24.49937939 -4 15.9375 C-3.72345632 14.60752616 -3.4474117 13.27744845 -3.171875 11.94726562 C-1.14327307 2.28654614 -1.14327307 2.28654614 0 0 Z " fill="#90B9E4" transform="translate(262,360)"/>
<path d="M0 0 C0.72407043 -0.00846954 1.44814087 -0.01693909 2.19415283 -0.02566528 C4.58347218 -0.04903062 6.9721474 -0.05005762 9.36157227 -0.04882812 C11.02539833 -0.05592995 12.68922194 -0.06362898 14.3530426 -0.07189941 C17.83910939 -0.08534307 21.32494971 -0.08691354 24.81103516 -0.08105469 C29.27469379 -0.07515818 33.73726489 -0.10574761 38.20071316 -0.14617157 C41.63660011 -0.17204247 45.07222496 -0.17492659 48.50819588 -0.17127991 C50.15362342 -0.1729717 51.79906298 -0.18262008 53.44439507 -0.20042419 C55.74752102 -0.22260415 58.04844299 -0.21292015 60.3515625 -0.1953125 C61.66076157 -0.19736694 62.96996063 -0.19942139 64.3188324 -0.20153809 C68.60951276 0.5777611 70.08728953 2.02503341 72.74047852 5.41992188 C73.30297852 8.48242188 73.30297852 8.48242188 72.74047852 11.41992188 C71.17150879 13.57017517 71.17150879 13.57017517 68.74047852 15.41992188 C66.11492446 15.8200254 63.90554269 15.97785535 61.28149414 15.95336914 C60.16371834 15.9662925 60.16371834 15.9662925 59.02336121 15.97947693 C56.5641287 16.00214995 54.10603442 15.99539665 51.64672852 15.98632812 C49.9356655 15.9915629 48.22460537 15.99783884 46.5135498 16.00511169 C42.92906099 16.01551812 39.34496911 16.01095077 35.76049805 15.99633789 C31.166674 15.97914323 26.57409991 16.00265151 21.98041534 16.03782749 C18.44760854 16.0597855 14.91510163 16.05836409 11.38224792 16.05006218 C9.68855925 16.04924189 7.99484872 16.05612011 6.30122375 16.07083321 C3.93318776 16.08825233 1.56740799 16.07376255 -0.80053711 16.05102539 C-1.49987869 16.06271759 -2.19922028 16.07440979 -2.91975403 16.0864563 C-6.57215999 16.01508996 -8.02372628 15.64105939 -10.72570801 13.10704041 C-12.25952148 10.41992188 -12.25952148 10.41992188 -12.25952148 6.79492188 C-10.30371763 0.19408388 -6.38537054 0.04108797 0 0 Z " fill="#060606" transform="translate(189.259521484375,297.580078125)"/>
</svg>
